<svg width="817" height="807" viewBox="0 0 817 807" fill="none" xmlns="http://www.w3.org/2000/svg">
    <path fill-rule="evenodd" clip-rule="evenodd"
        d="M402.334 1.22625C396.649 3.33025 391.744 7.67625 388.662 13.3392C387.209 16.0102 380.337 37.3203 373.392 60.6953C359.302 108.117 336.854 182.451 330.75 201.901C328.557 208.89 325.992 215.559 325.051 216.721C323.734 218.348 317.243 220.435 296.855 225.785C282.289 229.609 267.338 233.591 263.631 234.636C259.924 235.681 256.709 236.234 256.487 235.865C256.265 235.497 260.778 221.02 266.516 203.695C289.446 134.456 294.518 115.485 295.569 95.0332C296.129 84.1352 296.071 83.7193 293.113 77.3983C287.681 65.7913 273.041 52.4052 254.871 42.4342C242.933 35.8832 230.507 33.8763 223.239 37.3253C213.876 41.7683 209.856 51.5993 203.461 85.6953C196.248 124.154 182.311 182.702 168.825 231.195C162.296 254.672 160.272 260.217 157.266 262.863C156.224 263.781 142.546 269.109 126.871 274.704C64.4693 296.978 18.6833 316.593 7.49227 325.846C0.35527 331.748 -1.99473 341.117 1.79927 348.553C5.32227 355.459 11.0053 359.295 35.1543 371.066C78.8553 392.366 78.7733 392.261 82.3863 431.727C83.0663 439.156 83.9933 441.246 86.2293 440.388C88.3263 439.583 91.3493 433.345 99.1623 413.695C111.415 382.88 110.64 377.255 92.4983 365.307C83.3553 359.286 81.3933 357.383 82.1893 355.308C83.2573 352.524 138.871 326.162 138.871 328.439C138.871 329.118 127.621 368.781 112.845 420.195C84.4253 519.084 80.1453 538.867 84.3793 551.795C86.9913 559.77 90.3803 566.133 97.3743 576.195C109.455 593.574 128.764 611.745 138.799 615.18C146.787 617.913 150.579 617.098 156.662 611.34C160.876 607.349 162.559 601.484 163.876 586.195C166.867 551.47 179.757 500.178 214.465 384.891C226.971 343.35 226.551 344.266 234.809 340.594C248.607 334.459 291.286 320.777 292.582 322.073C292.907 322.397 290.197 335.383 286.56 350.929C269.118 425.493 259.048 477.398 258.563 495.244C258.391 501.568 258.754 503.068 262.097 509.835C266.864 519.483 278.299 535.611 288.818 547.52C293.348 552.649 296.9 556.983 296.713 557.152C296.525 557.321 288.271 562.312 278.371 568.242C192.054 619.952 131.099 662.244 104.776 688.687C93.0003 700.516 90.7893 709.081 98.6573 712.388C102.532 714.018 103.818 713.95 131.371 710.652C186.816 704.018 217.975 702.955 226.439 707.409C234.252 711.521 241.328 721.674 244.28 733.007C246.376 741.054 247.894 757.776 248.685 781.544C249.388 802.635 249.426 802.916 251.861 804.888C253.671 806.354 255.226 806.737 257.722 806.332C265.377 805.09 268.262 799.105 270.368 780.1C274.131 746.155 279.743 731.578 290.107 728.834C292.452 728.213 307.421 725.663 323.371 723.169C419.186 708.184 478.883 695.351 537.871 677.059C581.102 663.652 614.588 649.911 662.978 625.719C675.962 619.228 687.914 613.625 689.539 613.268C693.504 612.397 695.724 614.954 697.477 622.41C699.348 630.364 701.033 656.215 700.822 673.695C700.582 693.49 700.543 693.152 703.46 696.618C705.67 699.245 706.73 699.694 710.71 699.691C716.397 699.687 721.134 697.021 723.464 692.515C725.291 688.982 725.19 682.435 722.842 652.297C720.199 618.374 726.364 602.439 756.925 564.195C782.088 532.707 790.348 520.658 800.148 501.14C806.031 489.426 812.356 470.712 814.495 458.695C822.999 410.929 801.832 363.075 757.371 329.548C748.901 323.161 742.018 318.91 729.371 312.254C723.321 309.071 717.576 305.559 716.605 304.45C714.918 302.524 714.918 302.313 716.605 299.684C717.576 298.171 722.646 293.217 727.871 288.674C767.693 254.056 786.956 226.244 796.015 190.291C798.962 178.591 799.704 152.465 797.437 140.195C793.541 119.109 785.005 99.0363 773.304 83.4453C740.831 40.1772 685.23 20.5953 623.871 30.8163C582.639 37.6853 527.271 60.9652 469.871 95.5672C465.196 98.3852 461.034 100.692 460.621 100.693C459.31 100.696 459.809 95.3802 461.797 88.1752C467.179 68.6702 466.461 54.3353 459.288 38.0963C453.377 24.7123 440.505 10.9043 427.641 4.14425C421.672 1.00725 419.265 0.314256 413.414 0.0502561C408.898 -0.153744 404.923 0.268251 402.334 1.22625ZM434.399 64.4453C432.916 76.5953 426.029 100.533 382.396 245.195C376.343 265.261 371.604 281.737 355.502 338.695C352.47 349.42 345.211 376.195 339.372 398.195C326.298 447.447 318.537 475.474 315.971 482.695C314.093 487.982 314.015 488.06 313.951 484.695C313.795 476.472 324.26 425.027 333.988 386.195C346.892 334.687 372.481 245.688 394.368 176.195C426.515 74.1193 431.797 58.6953 434.601 58.6953C434.876 58.6953 434.785 61.2833 434.399 64.4453ZM682.871 75.1333C686.446 75.9033 691.621 77.5823 694.371 78.8643L699.371 81.1953L677.371 81.8273C652.802 82.5323 639.701 84.2362 620.371 89.2422C598.564 94.8892 585.014 100.09 561.458 111.857C539.328 122.911 521.278 133.94 498.871 150.098C483.377 161.271 462.872 175.029 462.407 174.564C461.881 174.039 484.612 154.254 496.871 144.567C536.973 112.876 584.838 87.4973 621.871 78.2903C643.524 72.9073 666.917 71.6963 682.871 75.1333ZM264.901 93.8053C266.133 98.3803 265.136 104.656 259.804 125.894C247.778 173.796 216.066 271.283 215.907 260.836C215.86 257.749 220.08 240.188 224.364 225.646C237.926 179.604 244.922 154.35 253.854 119.195C258.308 101.663 259.804 96.0763 261.416 90.9453C262.198 88.4543 263.818 89.7843 264.901 93.8053ZM692.663 122.269C706.793 125.155 713.654 131.05 716.27 142.55C717.697 148.827 717.71 150.36 716.391 157.253C713.534 172.188 704.666 186.098 686.451 204.215C666.078 224.479 637.434 243.752 601.871 261.127C584.207 269.757 581.215 270.847 582.194 268.296C582.672 267.051 589.936 230.391 601.757 169.569C608.784 133.417 610.077 131.231 626.766 127.306C654.723 120.731 676.852 119.04 692.663 122.269ZM768.771 161.835C768.987 174.014 763.904 193.32 756.851 207.112C750.255 220.01 742.223 230.518 728.458 244.258C700.22 272.445 655.629 300.356 634.354 303.159L629.371 303.816L636.871 299.598C657.759 287.852 671.548 279.611 682.871 272.107C714.147 251.379 737.526 228.51 751.034 205.432C759.34 191.241 766.638 168.447 766.958 155.695C767.052 151.945 767.204 151.612 767.871 153.695C768.311 155.07 768.716 158.733 768.771 161.835ZM507.923 237.195C489.013 293.715 481.536 315.127 477.808 323.431C474.341 331.157 468.106 339.434 456.681 351.481C446.187 362.546 443.615 367.088 443.474 374.807C443.386 379.589 444.023 381.691 447.767 388.982C451.903 397.037 452.13 397.901 451.612 403.61C451.093 409.339 445.587 428.07 433.362 465.695C404.522 554.462 400.705 568.877 400.753 588.862C400.768 595.225 400.365 598.853 399.573 599.476C398.912 599.997 391.506 600.692 383.116 601.02L367.861 601.616L369.395 598.905C370.239 597.415 374.011 592.201 377.777 587.319C390.078 571.375 395.032 557.773 391.946 548.421C390.134 542.931 383.194 537.135 376.693 535.68C372.08 534.647 369.888 534.73 362.311 536.226C357.394 537.196 349.566 539.255 344.914 540.802C340.263 542.349 336.288 543.446 336.081 543.239C335.075 542.232 353.826 457.901 363.885 418.195C374.353 376.878 395.156 304.913 398.501 298.443C400.719 294.154 403.842 293.467 418.871 293.964C450.242 295.001 466.123 290.457 470.416 279.215C474.383 268.828 470.041 259.643 453.304 243.02C442.257 232.049 441.421 230.978 444.839 232.184C451.389 234.495 463.145 235.868 467.671 234.851C474.565 233.302 479.628 229.586 497.383 213.045C514.692 196.918 523.045 189.513 523.432 189.951C523.55 190.085 516.571 211.345 507.923 237.195ZM569.821 212.458C564.942 239.118 549.604 295.059 544.12 306.195C541.412 311.694 534.483 317.705 536.339 312.945C537.515 309.931 551.291 265.527 560.926 233.695C566.004 216.92 570.363 202.828 570.615 202.378C571.768 200.317 571.56 202.957 569.821 212.458ZM308.871 277.753C271.091 292.077 213.478 309.636 211.324 307.482C209.866 306.023 269.531 284.691 293.371 278.147C305.221 274.894 322.551 270.923 325.371 270.815C326.471 270.773 319.046 273.895 308.871 277.753ZM638.976 336.702C654.481 337.963 676.498 342.444 690.589 347.207C725.359 358.961 751.412 379.637 761.138 403.195C765.316 413.314 766.38 419.375 766.232 432.195C766.124 441.583 765.525 446.371 763.482 454.195C760.247 466.586 751.318 485.042 742.721 497.108C708.656 544.922 617.305 596.525 506.12 630.76C441.034 650.801 382.425 660.869 317.871 663.1C300.92 663.686 300.876 663.695 345.764 657.178C414.797 647.156 462.685 636.726 513.371 620.675C598.809 593.618 663.639 561.013 708.553 522.51C754.922 482.761 771.143 435.22 750.742 398.859C748.935 395.639 743.406 389.096 737.927 383.695C708.622 354.803 655.595 339.473 601.371 344.217C574.85 346.538 553.845 351.383 518.644 363.302C497.883 370.332 496.477 369.795 513.484 361.333C543.437 346.429 567.303 339.759 602.871 336.35C610.762 335.594 627.329 335.756 638.976 336.702ZM189.88 355.191C189.246 358.493 186.542 368.845 183.873 378.195C181.204 387.545 172.881 417.02 165.378 443.695C151.465 493.155 144.124 517.695 143.242 517.695C142.601 517.695 143.512 510.883 145.981 497.195C151.048 469.113 180.02 366.057 188.056 347.531L190.371 342.195L190.703 345.691C190.885 347.614 190.515 351.889 189.88 355.191ZM653.871 390.73C686.065 396.168 709.449 408.875 714.336 423.589C728.903 467.448 635.808 531.022 493.633 574.306C490.477 575.267 487.674 575.832 487.404 575.561C487.134 575.291 498.531 540.448 512.73 498.133C526.929 455.817 539.333 417.184 540.293 412.282C542.246 402.307 543.729 399.397 547.67 397.807C554.704 394.968 583.223 390.144 603.871 388.299C614.418 387.357 641.776 388.687 653.871 390.73ZM509.871 407.301C509.871 411.972 507.133 420.673 494.326 456.705C487.388 476.224 480.139 496.695 478.216 502.195C474.168 513.772 462.863 542.695 462.385 542.695C461.731 542.695 463.135 533.977 465.041 526.195C466.957 518.372 477.519 486.633 487.835 457.695C490.678 449.72 495.636 435.7 498.852 426.539C504.534 410.359 507.162 404.695 508.986 404.695C509.473 404.695 509.871 405.868 509.871 407.301ZM316.171 600.999C314.967 602.962 307.086 609.844 300.735 614.477C293.059 620.078 246.415 649.038 225.371 661.268C220.463 664.121 206.38 670.695 205.178 670.695C203.539 670.695 246.238 641.788 267.969 628.186C287.928 615.693 315.261 599.704 316.671 599.697C316.836 599.696 316.611 600.282 316.171 600.999Z"
        fill="currentColor" />
</svg>
    